<svg id="icons" xmlns="http://www.w3.org/2000/svg" viewBox="0 0 340 340"><path d="M304.814,210.533A88.771,88.771,0,0,0,287.159,160.5H243.48a88.774,88.774,0,0,0-17.656,50.029l-3.247,75.859h85.484Z" style="fill:#88b0ea"/><path d="M275.132,141.8v-10.28H253.743c.539,20.308-1,15.514-10.695,28.981l21.39,30.584L287.159,160.5a97.978,97.978,0,0,0-7.819-8.779A13.906,13.906,0,0,1,275.132,141.8Z" style="fill:#ffd5bd"/><path d="M181.884,285.215H92.608a15.639,15.639,0,0,1,0-31.277h89.276Z" style="fill:#eaf5ff"/><path d="M106.845,251.785H194.2c9.117,0,16.507-7.091,16.507-15.84s-7.39-15.84-16.507-15.84H106.845C115.557,228.255,115.484,243.719,106.845,251.785Z" style="fill:#eaf5ff"/><rect x="-12.377" y="207.542" width="121.844" height="34.652" rx="5.776" transform="translate(-179.272 192.904) rotate(-69.831)" style="fill:#f47676"/><rect x="22.319" y="207.542" width="52.451" height="34.652" transform="translate(-179.272 192.904) rotate(-69.831)" style="fill:#c14949"/><rect x="10" y="286.392" width="320" height="31.217" style="fill:#ffd071"/><path d="M190.887,232.945H113.364a23.086,23.086,0,0,1,0,6h77.523C194.823,238.881,194.835,233.012,190.887,232.945Z" style="fill:#c9d4ff"/><path d="M181.884,266.576H96.28a3,3,0,1,0,0,6h85.6Z" style="fill:#c9d4ff"/><path d="M269.1,211.975c-.09,5.258-7.911,5.258-8,0C261.193,206.718,269.015,206.718,269.1,211.975Z" style="fill:#fff"/><path d="M269.1,244.06c-.09,5.258-7.911,5.257-8,0C261.193,238.8,269.015,238.8,269.1,244.06Z" style="fill:#fff"/><path d="M281.326,153.752c-8.038-6.974-5.942-12.831-6.194-22.229H253.743c-.139,2.858.422,12.012-.547,14.63Z" style="fill:#e58e6c"/><path d="M216.941,73.044V103.5s-.812,33.79,39.192,33.709c0,0,27.008,2.64,37.974-22.337l4.061-14.824s16.043-47.518-45.284-50.767C252.884,49.285,230.344,46.645,216.941,73.044Z" style="fill:#ffd5bd"/><path d="M330,42.032a19.64,19.64,0,0,1-19.64,19.64c-26-.9-25.993-38.386,0-39.281A19.64,19.64,0,0,1,330,42.032Z" style="fill:#575b5e"/><path d="M216.941,73.044s7.6-15.378,36.356-15.692c27.539.693,45.793,20.463,40.81,57.524,0,0,25.587-19.292,15.636-54.219,0,0-8.325-34.522-48.33-34.522C261.413,26.135,214.3,26.058,216.941,73.044Z" style="fill:#575b5e"/><path d="M232.71,101.632c.254,28.93,45.334,28.935,45.589,0Z" style="fill:#fff"/><path d="M182.152,218.356H94.624a16.049,16.049,0,1,1,0-32.084h87.528Z" style="fill:#eaf5ff"/><path d="M182.152,205.314v-6H96.28a3,3,0,0,0,0,6Z" style="fill:#c9d4ff"/><path d="M307.374,274.4a4,4,0,0,1-3.993-3.829L300.818,210.7a84.807,84.807,0,0,0-16.829-47.759,4,4,0,0,1,.731-5.609c5.213-3.4,7.876,4.493,10.507,7.868a94.048,94.048,0,0,1,13.584,45.159l2.562,59.867A4,4,0,0,1,307.374,274.4Z" style="fill:#383a49"/><path d="M222.58,290.392a4,4,0,0,1-4-4.171l3.247-75.859A94.037,94.037,0,0,1,235.412,165.2c2.637-3.4,5.288-11.244,10.507-7.869a4,4,0,0,1,.73,5.61A84.805,84.805,0,0,0,229.82,210.7l-3.247,75.86A4,4,0,0,1,222.58,290.392Z" style="fill:#383a49"/><path d="M264.438,195.088a4,4,0,0,1-3.3-1.739L240.18,162.766a4,4,0,0,1-.114-4.347,73.786,73.786,0,0,1,7.128-9.488c2.846-2.831,2.631-7.284,2.549-10.949.086-5.246,7.91-5.267,8,0,.657,12.467-3.1,13.712-9.441,22.484L264.569,184.2l17.523-23.585c-4.729-5.58-11.222-10.26-10.959-18.816v-7.356c.087-5.248,7.909-5.267,8,0V141.8a9.84,9.84,0,0,0,3.008,7.066,101.318,101.318,0,0,1,8.182,9.188,4,4,0,0,1,.047,4.833l-22.722,30.583A4,4,0,0,1,264.438,195.088Z" style="fill:#383a49"/><path d="M258.021,141.271c-29.358,1.156-44.954-17.461-45.078-37.864l0-30.363c.1-5.237,7.9-5.279,8,0V103.5c0,.2-.1,11.989,8.286,20.5,9.52,10.951,48.789,17.779,61.218-10.738a4,4,0,1,1,7.325,3.216C287.728,139.359,265.243,141.271,258.021,141.271Z" style="fill:#383a49"/><path d="M323.586,60.552c-3.51.123-5.42-4.64-2.695-6.957A15.642,15.642,0,1,0,295.68,36.619a4,4,0,1,1-7.506-2.768,23.643,23.643,0,1,1,38.105,25.658A3.986,3.986,0,0,1,323.586,60.552Z" style="fill:#383a49"/><path d="M294.11,118.876c-3.678.141-5.491-5.028-2.421-7.187h0c.955-.728,23.249-18.195,14.207-49.937-.37-1.467-8.113-31.53-44.483-31.617-10.955-.043-37.624,6.645-40.161,32.484,12.582-10.308,44.142-14.04,60.375.122,9.431,7.457,15.087,17.987,16.811,31.3a4,4,0,0,1-7.933,1.029c-1.447-11.167-6.1-19.931-13.841-26.05-19.869-16.084-52.656-3.484-56.136,5.8-1.7,3.637-7.438,2.481-7.581-1.549-.842-14.99,3-27.1,11.431-36,14.152-14.936,35.915-15.128,37.042-15.13,41.306,0,51.489,34.893,52.175,37.44C323.75,97.981,297.061,119.01,294.11,118.876Z" style="fill:#383a49"/><path d="M255.505,127.353c-13.195-.482-26.4-7.8-26.795-25.721a4,4,0,0,1,4-4H278.3a4,4,0,0,1,4,4C281.911,119.546,268.7,126.872,255.505,127.353Zm-18.439-21.721c3.385,18.143,33.495,18.14,36.876,0Z" style="fill:#383a49"/><path d="M83.088,219.979a3.979,3.979,0,0,1-2.331-.753A20.816,20.816,0,0,1,92.894,181.5h88.99a4,4,0,0,1,4,4V206.6a4,4,0,0,1-8,0V189.5H92.894c-12.352-.022-17.506,16.063-7.469,23.232C88.6,214.836,86.812,220.124,83.088,219.979Z" style="fill:#383a49"/><path d="M106.845,223.13H98.664a4,4,0,1,1,0-8h8.181C112.1,215.219,112.1,223.04,106.845,223.13Z" style="fill:#383a49"/><path d="M92.894,290.392a20.816,20.816,0,1,1,0-41.631h88.99c5.216.084,5.293,7.9,0,8H92.894c-16.948.595-16.969,25.028,0,25.631C98.161,282.478,98.141,290.309,92.894,290.392Z" style="fill:#383a49"/><path d="M181.884,256.761H106.845a4,4,0,0,1-2.728-6.926c7.277-7.213,7.06-20.842-.02-27.8a4.008,4.008,0,0,1,2.748-6.907h88.991c25.613.6,28.273,37.006,3.071,41.405a4,4,0,0,1-1.172-7.914,12.816,12.816,0,0,0-1.9-25.491H114.5c3.973,6.847,3.97,18.789,0,25.631h67.382C187.136,248.848,187.146,256.672,181.884,256.761Z" style="fill:#383a49"/><path d="M39.482,290.392c-1.774.583-22.908-8-25.046-8.564A9.789,9.789,0,0,1,8.629,269.28L46.656,165.751A9.792,9.792,0,0,1,59.2,159.945l21.683,7.964a9.79,9.79,0,0,1,5.806,12.548l-34.012,92.6c-1.892,4.889-9.24,2.223-7.51-2.759l34.013-92.6a1.779,1.779,0,0,0-1.056-2.28l-21.682-7.964a1.777,1.777,0,0,0-2.28,1.055L16.139,272.038a1.778,1.778,0,0,0,1.055,2.28l21.682,7.963a1.734,1.734,0,0,0,.7.109C45.149,282.3,45.071,290.552,39.482,290.392Z" style="fill:#383a49"/><path d="M54.882,259.46a4.014,4.014,0,0,1-1.379-.245L20.977,247.267a4,4,0,0,1-2.376-5.134L36.686,192.9a4,4,0,0,1,5.133-2.376l32.527,11.947a4.026,4.026,0,0,1,2.376,5.135L58.637,256.839A4.02,4.02,0,0,1,54.882,259.46ZM27.489,241.136l25.017,9.19L67.833,208.6l-25.017-9.189Z" style="fill:#383a49"/><path d="M330,321.609H10a4,4,0,0,1-4-4V286.392a4,4,0,0,1,4-4H330a4,4,0,0,1,4,4v31.217A4,4,0,0,1,330,321.609Zm-316-8H326V290.392H14Z" style="fill:#383a49"/><path d="M181.884,277.731a4,4,0,0,1-4-4v-20.97a4,4,0,0,1,8,0v20.97A4,4,0,0,1,181.884,277.731Z" style="fill:#383a49"/></svg>